<?xml version="1.0" encoding="UTF-8"?>
<svg width="400" height="300" viewBox="0 0 400 300" xmlns="http://www.w3.org/2000/svg">
  <defs>
    <linearGradient id="bg" x1="0%" y1="0%" x2="100%" y2="100%">
      <stop offset="0%" style="stop-color:#FFF3E0;stop-opacity:1"/>
      <stop offset="100%" style="stop-color:#FFE0B2;stop-opacity:1"/>
    </linearGradient>
    <linearGradient id="plateGradient" x1="0%" y1="0%" x2="0%" y2="100%">
      <stop offset="0%" style="stop-color:#FF9800;stop-opacity:1"/>
      <stop offset="100%" style="stop-color:#F57C00;stop-opacity:1"/>
    </linearGradient>
  </defs>
  
  <!-- Background -->
  <rect width="400" height="300" fill="url(#bg)"/>
  
  <!-- Main Circle -->
  <circle cx="200" cy="150" r="80" fill="#FFF3E0" stroke="#FF9800" stroke-width="2"/>
  
  <!-- Plate -->
  <circle cx="200" cy="150" r="50" fill="url(#plateGradient)"/>
  <circle cx="200" cy="150" r="45" fill="#FFF3E0"/>
  
  <!-- Food Sections -->
  <path d="M200 105 A45 45 0 0 1 239 150 L200 150 Z" fill="#EF6C00"/> <!-- Meat -->
  <path d="M200 150 A45 45 0 0 1 161 150 L200 105 Z" fill="#689F38"/> <!-- Veggies -->
  <path d="M200 150 A45 45 0 0 1 200 195 L161 150 Z" fill="#FFA000"/> <!-- Grains -->
  <path d="M200 150 L239 150 A45 45 0 0 1 200 195 Z" fill="#D32F2F"/> <!-- Protein -->
  
  <!-- Title -->
  <text x="200" y="150" 
        font-family="Arial" 
        font-size="24" 
        text-anchor="middle" 
        fill="#E65100"
        font-weight="bold">
    Average Diet
  </text>
  
  <!-- CO2 Impact -->
  <text x="200" y="260" 
        font-family="Arial" 
        font-size="20" 
        text-anchor="middle" 
        fill="#F57C00">
    5.63 kg CO₂/day
  </text>
  
  <!-- Description -->
  <text x="200" y="285" 
        font-family="Arial" 
        font-size="14" 
        text-anchor="middle" 
        fill="#FB8C00">
    Balanced mix of foods
  </text>
</svg> 