<?xml version="1.0" encoding="UTF-8"?>
<svg width="400" height="300" viewBox="0 0 400 300" xmlns="http://www.w3.org/2000/svg">
  <defs>
    <linearGradient id="bg" x1="0%" y1="0%" x2="100%" y2="100%">
      <stop offset="0%" style="stop-color:#795548;stop-opacity:0.2"/>
      <stop offset="100%" style="stop-color:#795548;stop-opacity:0.1"/>
    </linearGradient>
  </defs>
  <rect width="100%" height="100%" fill="url(#bg)"/>
  <rect x="20" y="100" width="360" height="120" rx="10" fill="#795548" opacity="0.9"/>
  <rect x="20" y="160" width="360" height="60" rx="5" fill="#5D4037"/>
  <circle cx="80" cy="240" r="20" fill="#333"/>
  <circle cx="140" cy="240" r="20" fill="#333"/>
  <circle cx="260" cy="240" r="20" fill="#333"/>
  <circle cx="320" cy="240" r="20" fill="#333"/>
  <rect x="40" y="120" width="40" height="30" rx="5" fill="#D7CCC8"/>
  <rect x="90" y="120" width="40" height="30" rx="5" fill="#D7CCC8"/>
  <rect x="140" y="120" width="40" height="30" rx="5" fill="#D7CCC8"/>
  <path d="M340 80 C350 80, 360 90, 360 100 L360 120 L340 120 Z" fill="#D7CCC8"/>
  <text x="200" y="190" font-family="Arial" font-size="32" text-anchor="middle" fill="white">Diesel Train</text>
  <text x="200" y="220" font-family="Arial" font-size="16" text-anchor="middle" fill="white">Traditional Rail Transport</text>
</svg> 